<?xml version="1.0" encoding="UTF-8"?>
<svg id="Camada_1" data-name="Camada 1" xmlns="http://www.w3.org/2000/svg" viewBox="0 0 2048 1592.54">
  <defs>
    <style>
      .cls-1 {
        fill: #8d5d1d;
      }

      .cls-2 {
        fill: #8a5817;
      }

      .cls-3 {
        fill: #855616;
      }

      .cls-4 {
        fill: #8b5918;
      }

      .cls-5 {
        fill: #885616;
      }

      .cls-6 {
        fill: #8c5a1a;
      }

      .cls-7 {
        fill: #8c5716;
      }

      .cls-8 {
        fill: #8b5718;
      }

      .cls-9 {
        fill: #895718;
      }

      .cls-10 {
        fill: #885719;
      }

      .cls-11 {
        fill: #8b5717;
      }

      .cls-12 {
        fill: #8c5817;
      }

      .cls-13 {
        fill: #895615;
      }
    </style>
  </defs>
  <path class="cls-6" d="M993.14,466.27c-3.14-14.64-9.45-28.87-9.35-44.14-38.55-1.05-79.62-11.89-112.23-32.87-31.01-19.95-73.27-75.05-79.79-111.52-1.97-10.99,11.09-8.52,18.82-8.05,61.52,3.77,119.21,33.6,151.03,87.02l19.48,34.66c-.48-23.64,3.71-46.83,7.86-69.93-45.76-32.67-81.01-73.77-84.13-132.62-.74-14.02,1.29-46.81,6.05-59.59,1.72-4.61,4.29-4.82,8.77-3.39,8.51,2.72,34.87,29.63,41.36,37.55,35.3,43.05,35.45,75.26,37.49,128.36.06,1.62-1.01,4.97,1.32,4.66,12.2-36.75,35.38-68.87,61.53-96.96-8.54.35-15.85,2.73-24.79,2.06-21.28-1.6-33.83-16.08-29.45-37.57,1.81-8.86,9.32-15.02,12.51-23.12-27.8-34.43-6.8-63.75,35.04-49.03.92-.83-11.54-18.8-12.76-21.33-6.07-12.58-11.03-34,1.38-44.21,11.15-9.18,20.63-3.18,32.8-1.9,14.06-42.13,50.27-23.86,56.17,11.27l14.03-22.72c23.37-18.75,44.38-1.57,48.99,23.88,16.46-1.06,37.03-3.71,44.24,15.27,9.69,25.53-17.57,51.66-35.07,66.48,22.31-2.59,60.74-3.93,69.16,22.45,5.73,17.96-8.6,29.75-21.63,39.01,3.14,14.02,10.48,24.66.96,38.52-13.04,18.96-43.6,5.74-59.2-2.98-2.69-1.5-17.52-12.61-18.69-11.39,7.71,21.27,18.33,67.72-12,75.59-14.39,3.73-25.95-6.31-35.76-15.24-16.11,6.72-35.82,15.22-48.53-2.19-14.65-20.06-1.91-50.43,7.36-70.18-45.11,38.48-80.15,95.76-89.87,154.86-2.64,16.03-4.89,38.44-3.14,54.46.21,1.95.27,3.41,2.06,4.63,30.25-59.13,79.86-100.36,148.38-104.36,7.6-.44,27.21-3.07,25.9,7.05-.66,5.1-11.07,24.57-14.25,30.01-34.41,58.83-91.24,87-159.38,83.35.29,14.52,5.25,28.27,9.59,41.91l291.29,2.92,4.01,5.35,1.38,46.1c5.56-.95,10.48-3.38,16.03-4.69,72.85-17.21,120.51,40.88,106.58,110.59-18.65,93.37-118.94,129.55-204.17,131.51-21.95,25.93-46.29,50.21-76.27,66.83-4.64,35.5-23.72,53.25-59.44,55.58-53.05,3.46-109.82-2.76-163.27-.02-22.13-2.29-42.94-12.72-51.12-34.47-2.14-5.69-3.23-17.91-5.61-21.14-1.95-2.65-13.92-8.67-17.87-11.55-93.49-68.5-134.91-184.13-139.99-297.33-.32-7.24-1.12-39.87,1.46-43.98.6-.96,3.81-3.48,4.54-3.48h280.18ZM1122.85,98.49c.12-27.23,8.57-55.51-9.58-79.34-17.69-23.23-21.18,3.52-28.58,12.42-10.08,12.12-34.43-9.11-37.73,9.05-3.85,21.2,20.19,48.77,34.43,62.57l30.77,22.04c1.32-1.27-14.75-20.36-15.47-22.65-.84-2.65-.79-7.49,2.74-6.75,3.74.79,12.54,19.57,16.11,22.69,1.67,1.46,2.34,1.72,4.64,1.37-3.65-13.11-7.58-26.37-12.35-39.13-1.95-5.22-13.44-22.67.37-16.41l14.65,34.15ZM1175.89,20.06c-16.22-15.03-29.85,11.24-34.35,24.23-7.76,22.42-8.84,46.7-6.48,70.1l6.44,1.47c2.63-5.68,13.9-39.27,18.3-40.01,1.93-.33,4.28,2.4,4.26,4.34-.03,3.37-11.1,24.73-13.13,30.99-.49,1.5-3.88,8.07-.62,8.71,4.24.84,19.05-22.23,23.99-25.47s7.59,0,4.11,5.45c-2.91,4.55-20.29,23.83-20.64,26.2l2.06,3.08c4.06,1.17,18.55-6.62,22.79-9.03,18.01-10.24,55.7-41.49,46.02-65.2-6.52-15.98-32.57-2.9-40.18-9.3-5.14-4.32-5.41-18.95-12.55-25.56ZM1106.81,137.28c.42-2.58-1.73-3.85-3.37-5.32-4.51-4.02-14.51-10.14-20-13.43-12.6-7.56-49.54-27.11-62.14-15.28-12.28,11.52,10.69,28.28,10.48,38.74-.12,5.88-10.59,15.2-12.95,21.66-4.26,11.67-.67,21.63,11.47,25.41,23.99,7.47,63.14-13.03,80.52-29.73l-1.98-3.29c-6.57,3.94-43.4,8.77-47.52,6.02-2.98-1.98-.61-6.26,2.32-7.12,4.75-1.4,13.84.14,19.62-.44,7.44-.74,14.87-4.08,22.23-5.21v-3.98c-6.24-.56-24.7,1.11-29.45-1.99-2.72-1.77-.69-6.04.69-6.04h30.09ZM1130.52,125.56c-18.51,3.8-17.76,33.19,2.5,35.68,28.35,3.48,25.6-41.46-2.5-35.68ZM1157.64,164.03c-4.98,6.7,21.99,28.68,27.11,32.39,11.54,8.36,47.77,31.26,59.22,15.84,7.71-10.39-2.32-20.86-2.82-30.8-.73-14.54,25.78-16.98,22.06-36.76-4.29-22.86-57.96-15.54-73.76-12.37-8.77,1.76-17.18,4.83-25.68,7.48l-.72,6.77,40.39,8.41c5.9,2,3.57,7.74-2.18,7.67-7.83-.1-23.59-6.24-32.62-7.64-2.34-.36-4.65-.51-7.01-.34-2.15,1.61,7.08,6.58,8.12,7.25,5.47,3.51,26.54,10.91,15.34,16.83l-27.46-14.73ZM987.77,285.72c4.26-57.95-20.92-112.54-68.18-145.76-13.91,61.01,8.89,123.52,60.15,159.14-10.06-33.46-23.34-66.03-40.86-96.28-1.5-6.21,5.84-8.44,10.07-4.64l19.01,37.16,19.81,50.38ZM1122.85,168.04c-3.46-3.44-12.73,8.94-14.67,11.41-12.38,15.75-37.66,62.91-18.12,79.57,12.99,11.07,26.95-7.41,37.16-6.44,10.2.97,19.06,22.28,35.19,15.87,17.84-7.1,7.53-44.26,2.9-57.93-4.7-13.88-11.62-27.69-21.74-38.44-2.95-1.19-2.09,3.47-2.04,4.71.32,7.66,3.31,16,2.53,23.83l-1.95,2.09-4.65-.45c-1.91-1.37-3.58-22.48-4.25-26.52-.2-1.2-.57-4.02-2.32-3.66l-4.21,44.61-6.49,2.2,2.66-50.83ZM967.72,392.71c1.26-1.38-6.38-14.45-7.79-16.94-34.56-61.2-85.1-90.41-155.36-95.38,17.65,48.61,48.84,90.9,97.15,112.13,20.18,8.87,44.16,15.35,66,16.91-29.9-29.6-62.57-56.35-99.06-77.46-5.21-19.93,16.68-3.31,24.06,1.34,27.12,17.1,46.29,36.98,70.32,56.73,1.51,1.24,2.16,3.25,4.68,2.67ZM1154.95,312.48c-24.64,1.25-48.98,5.67-71.35,16.23-29.25,13.82-50.71,39.48-69.06,65.33l42.91-28.63c6.32-3.9,35.91-21.89,40.8-22.19,4.56-.28,7.28,4,5.27,8.05-1.2,2.41-40.21,22.93-46.59,26.99-15.53,9.89-31.06,21.25-45.05,33.17,50.42-1.64,94.07-21.79,123.59-62.96,2.52-3.52,21.4-34.24,19.5-35.99ZM1288.69,478.3h-569.71c-1.16,95.84,21,196.33,81.63,272.1,36.52,45.63,90.19,83.05,150.33,86.38,31.39,1.74,74.42,1.82,105.77,0,137.9-8.04,216.54-162.76,230.47-284.41,1.09-9.5,5.37-71.59,1.5-74.06ZM1228.51,743.09c73.25-4.46,159.87-33.19,182.23-111.31,17.3-60.43-17.93-121.44-85.98-107.38-4.37.9-20.9,6-23.32,8.77-3.6,4.12-2.11,26.4-4.7,33.4,72.07-43.49,115.18,24.79,70.62,87.35-26.26,36.86-76.16,52.94-119.19,59.68l-19.65,29.49ZM1256.59,698.95c46.25-4.03,111.34-37.12,116.34-88.93,5.27-54.64-46.01-53.5-78.5-27.02-7.24,40.3-19.67,79.33-37.84,115.95ZM1129.54,831.37c-19.31,7.07-38.84,13.9-59.52,16.02-21.54,2.21-42.83.07-64.12-.04-44.03-.23-74.68,3.82-116.63-13.09-2.43-.98-10.08-6.92-9.83-2.23,1.04,19.28,23.32,33.03,40.98,33.93,53.33-2.35,110.13,3.67,163.06.23,22.59-1.47,42.82-10.04,46.07-34.83Z"/>
  <path class="cls-7" d="M855.39,1118.88c29.01,2.54,58.73,4.66,87.56-1.39,5.77,1.83,5.92,8.65,1.21,11.94-4.93,3.44-23.93,5.12-30.61,5.5-21.21,1.2-42.38-1.91-63.56-2.11-13.75,34.75-31.15,69.54-41.77,105.41-3.84,12.97-17.04,54.6,10.63,40.05,31.17-16.39,57.18-87.5,70-93.17,10.03-4.44,6.01-3.6,14.04-10.01,17.16-13.71,40.81-9.61,48.07,12.04,7.47,22.29-.75,43.39-8.64,64.15,13.63-2.08,22.52-8.72,31.43-18.71,5.11-5.72,7.27-16.62,16.56-7.14,1.35,4.3-5.16,12.49-7.92,15.78-12.24,14.55-30.06,22.97-49.24,22.31-18.16,39.13-78.83,48.34-75.11-8.23-13.48,16.59-33.7,45.72-58.58,39.21-15.65-4.1-16.01-24.99-14.29-37.88-11.81,18.76-42.27,51.47-66.11,35.36-16.12-10.89-7.83-34.35-2.43-49.05,4.43-12.05,24.34-47.32,20.87-57.66-2-3.85-7.02-2.08-10.26-1.27-21.41,5.33-62.57,68.84-74.03,89.12-5.46,9.66-7.89,28.51-23.53,21.3-10.58-4.87,2.74-20.97,3.68-28.42l-20.03,20.74c-9.47,8.66-25.63,12.97-36.6,4.47-13.19-10.22-8.62-30.87-7.56-45.28-12.73,14.46-22.15,32.86-39.18,43.05-28.68,17.17-47.39-2.5-43.74-32.36-9.47,8.37-17.49,17.68-28.18,24.63-31.85,20.69-78.88,24-84.15-23.29-14.52,16.81-35.28,44.3-60.91,36.18-33.25-10.53,2.4-68.93,9.42-88.37,3.26-9.04,10.54-25.97-6.36-22.4-23.7,5-71.93,85.41-82.5,108.74-11.07,7.2-19.74,1.06-16.16-12.16,6.18-22.85,21.92-59.44,31.5-82.16,2.42-5.73,9.67-24.92,14.97-26.49,6.56-1.94,13.9.88,13.9,8.41s-14.79,35.27-18.64,44.36c-.52,1.23-2.9,3.41-.9,4.45,15.69-22.31,40.92-64.33,73.25-58.53,13.31,2.39,15.57,16.67,14.01,28.1-2.51,18.32-30.73,65.78-26.91,78.32,5.35,17.52,32.45-10.24,37.92-16.49,24.14-27.59,32.03-68.44,66-85.12,12.48-6.13,32.26-10.84,43.62-.35,11.72,10.83,7.87,40.46-6.62,33.35-7.42-3.64,5.3-23.85-11.31-24.86-31.17-1.89-63.07,64.37-48.66,88.85,12.32,20.94,47.46,3.77,61.33-7.81,23.13-19.3,29.55-37.26,45.7-59.95,13.64-19.16,37.44-36.43,62-34.4,10.69.88,15.36,5.84,23.97,10.79,3.3-13.89,24.48-12.98,20.14,2.68-4.45,16.05-15.24,34.61-20.38,51.83-3.24,10.86-16.91,56.33,8.54,44.64,14.01-6.43,42.37-46.44,50.14-60.85,4.57-8.47,16.12-43.08,21.75-46.45,5.99-3.59,16.77.18,16.71,7.44-.05,6.46-15.98,33.22-18.9,42.53-.41,1.31-2.17,4.07-.4,4.97,14.21-21.7,43.15-63.38,73.25-57.21,18.29,3.74,14.47,26.39,10.38,39.19-5.17,16.2-25.73,50.64-24.22,65.52,1.3,12.78,16.28,5.99,22.72,1.18,42.26-31.55,54.3-96.19,74.95-141.71l.06-3.27c-14.68.75-30.29-1.01-44.86-.06-4.79.31-24.14,4.62-26.02,3.46-8.39-12.12,7.95-14.31,16.74-15.42,5.35-.68,14.4-1.23,19.98-1.42,13.66-.47,27.08,1.27,40.67,1.22,1.6-1.03,10.46-29.6,14.83-34.98,4.94-6.08,18.55-3.1,18.65,5.04.06,5.32-13.05,28.97-11.89,30.1ZM919.22,1180.73c-24.28,5-24.1,57.79-.6,66.84,6.36,2.45,7.31,1.51,10.15-3.81,7.82-14.65,20.51-69.23-9.55-63.04ZM509.35,1279.03c8.63,8.09,26.22-10.28,31.72-16.4,17.2-19.15,28.87-42.92,42.64-64.47,1.53-7.41-12.1-15.04-19.06-14.93-32.91.56-62.27,59.74-58.23,88.71.21,1.51,1.96,6.19,2.93,7.09ZM918.25,1259.33c-9.33-.91-15.4-7.78-21.4-14.06l-10.69-22.06c-3.78,14.5-14.5,42.98-2.71,55.52,12.54,13.33,37.88-15.84,34.8-19.4Z"/>
  <path class="cls-12" d="M1719.32,1259.32l-18.09,21.36c-18.67,19.1-53.25,23.42-54.12-11.34-.04-1.74,2.94-11.26.66-11.38-10.16,17.78-37.51,49.54-60.19,33.45-14.6-10.36-9.56-30.53-7.7-45.18.18-1.38,1.31-3.32-.97-2.96.14,1.62.07,2.61-.92,3.99-13.21,18.37-38.42,55.57-64.94,46.47-14.44-4.96-17.05-21.09-17.74-34.43-11.47,17.38-30.88,40.78-54.53,35.82-15.59-3.27-16.14-20.32-16.34-33.12-13.01,16.79-33.94,43.98-58.26,31.5-19.19-9.84-10.95-40.33-5.29-56.27,5.08-14.34,13.39-27.63,18.06-42.12-8.9,3.27-17-.37-25.91.18-1.91,7.1-5.73,14.38-9.28,20.8-3.5,6.33-22.91,39.35-27.01,41.23-4.2,1.93-8-.91-9.11-5.11l35.73-60.69.07-1.61c-21.4-8.85-15.49-49.22,8.79-47,18.43,1.68,12.02,27.66,7.36,38.83,12.6,3.22,39.37-11.84,42.56,7.7,1.37,8.42-16.03,38.81-20.06,48.91-3.74,9.35-12.71,30.79-7.04,39.61,9.68,15.06,34.06-15.12,39.93-22.77,6.66-8.68,16.71-23.61,21.57-33.26,4.52-8.96,16.08-45.74,23.37-48.84,6.16-2.62,15.15.28,14.67,7.89-.34,5.32-12.77,29.06-15.69,36.54-4.94,12.66-18.76,46.21-16.09,58.22,2.73,12.32,16.69,4.01,22.88-.61,35.01-26.16,42.77-82.07,84.22-100.33,14.72-6.48,31.53-8.16,45.51.48,2.88,1.78,4.32,5.39,7.56,5.13,1.58-13.1,22.8-12.81,19.8,1.7-1.98,9.58-12.02,28.08-15.79,39.07-4.45,12.97-14.93,42.62-9.66,55.18,5.85,13.92,26.69-7.24,31.76-13.01,25.69-29.23,33.29-56.07,46.46-91.29,4.91-13.14,10.22-26.22,15.7-39.13l-35.48-2.05c-7,1.98-14.12.91-21.18,1.56-5.15.47-13.29,5.15-16.7.31-4.26-12.63,17.71-13.3,25.91-13.84,16.97-1.12,34.89.96,51.96-.2,3.21-1.08,11.76-34.4,18.55-37.61,5.75-2.72,16.03.62,15.73,7.55-.23,5.34-13.27,30.44-12.02,31.58,25.99,0,52.05,3.47,77.92-.3,4.01-.58,8.15-5.01,11.57-.23,8.69,12.11-20.9,14.79-27.32,15.24-22.42,1.55-44.92-2.05-67.31-1.1-12.95,35.48-32.53,71.73-42.34,108.11-4.02,14.92-13.71,51.89,14.48,35.87,13.33-7.58,36.67-40.9,43.92-55.04,6.45-12.57,12.67-38.12,20.55-47.66,5.35-6.49,17.25-2.55,16.77,7.29-.4,8.31-16.4,39.79-20.18,50.82-3.27,9.55-17.46,46.19-1.69,48.6,11.58,1.77,33.73-26.62,40.25-35.45,4.99-6.76,16.1-21.95,19.23-28.91,3.88-8.63,9.15-40,14.83-44.67,5.91-4.87,18.58-.84,17.92,8.08-6.51,24.1-16.9,48.02-20.58,72.83-.69,4.63-4.23,25.41.46,26.92,8.86,2.86,34.48-24.8,39.99-32.05-5.42-22.18,2.89-56.79,18.77-73.4,7.87-8.23,25.37-14.05,28.34.87,3.97,19.9-20.54,53.76-30.41,70.58,9.19,7.54,23.22.3,31.36-6.06,15.93-12.45,17.42-25.33,27.7-40.5,8.38-12.36,30.86-31.35,46.03-32.87,43.45-4.37,36.16,60.46,20.59,84.09,13.49-.32,24.26-9.17,32.78-18.69,2.15-2.4,5.35-9.08,7.33-10.06,6.21-3.09,10.94,1.56,8.34,8.33-6.13,15.96-28.04,28.73-44.1,32.13-3.62.77-7.76-.44-11.02,1.02-2.17.97-11.54,14.5-15.44,18-32.69,29.28-69.49,9.75-62.16-33.39-15.68,10.73-31.18,18.87-50,9.54-12.63,14.07-37.56,44.38-58.84,35.8-14.88-6-9.79-34.15-7.5-46.66l-24.01,31.47c-11.98,9.84-25.26,21.93-42.05,15.19-4.46-1.79-12.84-10.62-12.84-15.25v-19.39ZM1352.88,1156.34c-10.48-.99-11.53,14.3-4.67,20.04,4.77-5.3,4.87-13.37,4.67-20.04ZM1891.83,1179.08c-18.53,8.08-23.86,35.22-25.4,53.48,1.83,2.15,8.43-9.17,9.09-10.28,7.58-12.65,15.01-28.43,16.3-43.2ZM1979.76,1179.35c-9.76.9-18,13.74-20.41,22.43-5.73,20.7,1.77,40.9,22.63,48.07,10.28-12.07,19.36-55.8,8.07-66.68-2.25-2.17-7.18-4.11-10.29-3.82ZM1571.9,1183.43c-30.02,3.76-60.21,59.3-55.54,86.94,4.14,24.47,28.77-1.01,36.48-9.69,6.21-7,41.97-59.32,41.64-64.87-4.91-9.16-11.85-13.72-22.58-12.37ZM1942.67,1221.88c-3.98,12.31-13.18,50.63-.55,58.7,11.67,7.46,29.17-9.25,33.97-19.24-21.16-8.27-25.29-16.43-31.44-36.81-.38-1.27-.25-3.04-1.98-2.65Z"/>
  <path class="cls-11" d="M98.46,1132.26c-4.36,16.91,9.76,30.4,26.05,32.11,10.99,1.15,39.56-6.42,46.24,4.59,11.72,19.34-36.12,14.9-43.39,15.63-27.28,2.73-66.51,21.63-84.43,42.62-30.92,36.2-27.66,93.26,28.12,97.62,58.07,4.54,114.15-39.84,144.3-85.68,1.63-2.47,4.28-9.77,5.68-10.68,4.73-3.1,11.7.55,10.96,5.78-.54,3.81-12.26,20.9-15.31,24.95-36.1,47.91-108.33,94.32-170.41,77.02-54.01-15.05-57.19-71.71-27.85-112.12,19.51-26.88,51.25-42.54,82.68-51.04-17.87-8.64-26.07-24.89-24.24-44.63-29.44-7.43-64.59-22.71-72.72-55-2.44-9.68-4.2-23.08,10.17-16.85,2.55,35.95,35.28,52.67,66.6,59.54,9.57-27.21,33.35-48.8,59.41-60.31,23.33-10.3,55.76-15.49,80.4-7.71,11.23,3.55,23.46,12.17,24.82,24.66,4.29,39.23-41.09,53.83-71.97,59.1-24.09,4.11-51.16,4.98-75.13.41ZM101.12,1120.22c34.53,3.78,80.22,3.55,111.41-13.61,27.24-14.99,27.87-42.57-5.24-46.41-45.09-5.23-87.53,19.2-106.17,60.02Z"/>
  <path class="cls-8" d="M1137.65,1160.38c-20.77,38.24-45.62,122.51-3.43,153.76,47.55,35.22,118.96-24.96,145.4-63.23,2.78-4.02,13.44-24.03,14.68-24.75,4.73-2.74,11.8.74,9.85,7.76-5.38,19.3-44.51,60.36-61.04,72.76-87.44,65.55-173.66,27.91-150.36-87.5,4.87-24.12,14.68-46.68,24.77-68.92l-.63-1.93c-28.69-18.85-42.71-58.88-31.54-91.67,2.28-6.7,6.77-19.4,15.21-16.45,7.2,2.52-.41,12.11-1.81,16.48-10.37,32.35-.07,60.51,26.1,80.91,26.27-42,72.3-89.95,124.55-94.76,46.27-4.26,76.36,24.47,52.01,69.39-28.6,52.77-110.87,67.34-163.77,48.15ZM1144.25,1149.64c39.53,11.17,94.6,6.49,127.07-20.7,40.87-34.23,32.01-82.16-28.14-69.6-24.62,5.14-49.62,25.16-66.18,43.48-3.91,4.33-34.89,44.43-32.75,46.81Z"/>
  <path class="cls-13" d="M998.48,1463.93l13.16.22,38.31,67.99,37-67.99,13.16-.22v96.29h-12.04s-1.34-69.54-1.34-69.54l-32.73,57.51c-1.94,2-5.1,1.81-7.39.67-2.84-1.41-27.22-47.2-31.38-54.21-.87-1.46-1.36-3.68-3.38-3.98v69.54c-4.4-.5-10.19,1.66-13.37-2.01v-94.28Z"/>
  <path class="cls-4" d="M733.02,1463.93c25.92,3.49,34.35,31.34,12.71,46.79,23.77,7.54,23.27,38.85-.6,46.9-1.63.55-9.77,2.6-10.77,2.6h-52.83v-96.29c16.06,1.55,35.91-2.1,51.49,0ZM693.57,1505.39h39.45c1.65,0,8.8-5.48,9.86-7.53,2.8-5.41,2.02-14.33-2.58-18.48-.93-.84-9.31-4.75-9.96-4.75h-36.78v30.76ZM733.02,1516.09c-11.41-1.89-27.49,1.4-39.45,0v33.43h38.11c1.88,0,11.9-4.11,13.59-5.8,10.33-10.35.2-25.57-12.25-27.63Z"/>
  <path class="cls-10" d="M1598.69,1462.98c67.48-4.67,73.84,89.92,12.82,97.1-73.68,8.67-78.59-92.55-12.82-97.1ZM1598.63,1474.98c-48.39,5.92-40.45,76.54,6.28,74.56,50.95-2.16,44.51-80.77-6.28-74.56Z"/>
  <path class="cls-9" d="M1338.34,1560.38l-.95,5.25c19.32,1.97,18.11,23.96,0,26.56-6.73.97-26.46.5-19.37-10.01,3.76-2.74,22.76,6.63,22.78-5.14l-14.11-4.7,2.12-12.11c-69.64-13.38-46.41-112.67,22.77-95.68,10.55,2.59,31.83,12.42,14.18,22.01-26.25-28.25-75.93-1.34-64.4,36.23,8.36,27.22,44.68,33.22,65.37,16.12l7.48,8.46c-9.3,9.23-22.86,13.57-35.88,13.01Z"/>
  <path class="cls-2" d="M1513.36,1560.22l-14.56-.15-9.37-23.09-51.41-.89-10.45,23.91-13.15.21,41.63-96.1c4.74.18,12.65-1.97,15.73,1.96l41.59,94.14ZM1483.94,1524.11l-20.73-45.48-20.73,45.48h41.46Z"/>
  <path class="cls-2" d="M1205.56,1464.15l41.67,96.06-13.16-.21-10.45-23.91-51.41.89c-2.3,3.97-7.58,20.79-10.54,22.59-2.81,1.71-8.68.19-12.05.65l41.31-95.46,14.64-.61ZM1219.15,1524.11l-20.73-45.48-20.73,45.48h41.46Z"/>
  <path class="cls-4" d="M483.5,1481.23c-12.12-4.17-20.34-8.27-33.88-6.48-11.16,1.47-20.52,10.31-14.01,21.8,6.95,12.27,50.8,7.36,55.72,31.21,7.09,34.42-38.81,37.52-61.56,28.13-10.13-4.18-14.85-6.94-5.5-16.97,12,7.97,24.1,10.91,38.62,9.27,9.82-1.11,19.82-8.92,13.89-19.25-8.38-14.59-57.07-6.36-57.07-38.93,0-30.76,47.82-33.27,67.36-19.41l-3.55,10.63Z"/>
  <path class="cls-5" d="M554.48,1463.93v60.85c0,3.13,5.47,13.5,7.97,16.11,8.61,9.02,26.51,9.88,36.62,3.07,3.18-2.15,10.24-11.83,10.24-15.16v-64.86h13.37v64.86c0,2.08-5.35,13.56-6.91,15.83-19.37,28.2-74.67,16.76-74.67-18.5v-62.19h13.37Z"/>
  <polygon class="cls-1" points="828.64 1463.93 828.64 1548.19 880.8 1548.19 880.8 1560.22 815.27 1560.22 815.27 1463.93 828.64 1463.93"/>
  <rect class="cls-3" x="926.27" y="1463.93" width="12.04" height="96.29"/>
  <path class="cls-10" d="M1487.83,1438.64c1.98,11.38-8.03,19.21-18.96,16.97-4.88-1-11.24-7.51-15.13-7.75-6.42-.41-5.06,6.82-8.08,7.9-11.22,4.01-8.72-14.54,3.15-16.93,12.72-2.56,17.23,7.49,26.46,6.51,3.47-.37,3.82-11.07,12.56-6.7Z"/>
  <path class="cls-4" d="M1765.74,1136.56c20.33-4.59,20.6,23.96,3.64,25.08-14.81.98-17.35-21.99-3.64-25.08Z"/>
  <path class="cls-10" d="M1472.87,1137.9c18.93-4.24,19.9,21.71,4.71,23.55-15.54,1.88-17.59-20.66-4.71-23.55Z"/>
  <path class="cls-4" d="M947.66,617.38c-2.7,12.89,6.5,23.88,19.46,24.12,7.07.13,34.74-6.8,32.74,7.23-1.21,8.52-27.55,6.27-35.34,7.57-18.3,3.04-42.34,15.59-54.26,29.99-20.3,24.52-21.35,67.51,17.96,70.23,35.3,2.44,70.94-21.83,93.04-47.5,3.62-4.21,12.7-19.11,15.27-20.86,4.5-3.05,4.53,1.13,8.76,1.43,2.6-23.06,37.32-60.68,61.46-44.73,12.77,8.44,6.21,30.96-3.01,24.78-4.99-3.34,4.59-17.58-9.61-17.64-24.97-.1-52,63.68-26.17,71.76,17.56,5.49,40.26-16.43,50.11-28.94,3.04-3.86,7.94-16.6,13.59-12.03l1.88,3.43c-10.71,24.22-48.53,58.91-76.51,45.8-13.97-6.54-14.49-22.22-15.07-35.74-20.17,31.48-60.64,66.68-99.13,70.71-86.66,9.08-76.65-82.61-17.03-110.65l24.54-10.87c-14.41-3.26-18.55-17.3-17.56-30.59-16.61-5.21-32.92-10.62-43.91-24.96-4.02-5.24-14.76-27.53-3.38-27.5,6.04.01,4.83,9.26,7.53,15.33,4.8,10.79,15.67,17.49,26.1,22.05,3.15,1.38,15.07,6.58,17.18,4.25,2.83-3.13,6.34-12.09,10.07-16.73,18.98-23.58,58.05-40.62,87.99-31.88,17.94,5.24,25.58,21.83,14.17,37.76-17.36,24.25-73.67,27.68-100.86,24.18ZM950.34,608.03h39.45c10.46,0,37.73-8.69,46.02-15.5,11.74-9.65,10.73-21.35-4.16-26.36-28.24-9.49-70.6,14.43-81.31,41.86Z"/>
  <path class="cls-4" d="M780.16,651.83c-9.17,9.35-17.45-23.75-19.05-29.09-8.2-27.38-14.32-57.73-16.71-86.27-.46-5.53-2.1-24.71-.36-28.42.56-1.2,1.23-2.37,2.58-2.81,3.49-.83,6.83-.17,8.15,3.47,2.97,8.15,1.83,27.1,3,37.12,2.73,23.35,7.75,46.49,13.74,69.17,2.29,8.67,9.22,24.19,10.04,31.47.2,1.74-.17,4.09-1.4,5.35Z"/>
  <path class="cls-9" d="M784.03,669.73c1.98-.31,4.39-.63,6.29.03,2.55.89,12.03,24.77,15.36,28.86-4.05,15.72-11.61,3.73-16.05-4.1-2.3-4.06-12.2-22.57-5.6-24.79Z"/>
</svg>