<?xml version="1.0" encoding="UTF-8"?>
<svg id="Camada_1" data-name="Camada 1" xmlns="http://www.w3.org/2000/svg" viewBox="0 0 1678.14 2048">
  <defs>
    <style>
      .cls-1 {
        fill: #8b5918;
      }

      .cls-2 {
        fill: #8c5a1a;
      }

      .cls-3 {
        fill: #895718;
      }
    </style>
  </defs>
  <path class="cls-2" d="M667.41,1085.98c-7.32-34.09-22-67.25-21.79-102.81-89.79-2.44-185.45-27.69-261.4-76.56-72.22-46.46-170.66-174.79-185.85-259.74-4.58-25.59,25.83-19.84,43.83-18.74,143.29,8.78,277.64,78.25,351.76,202.68l45.38,80.73c-1.11-55.06,8.63-109.06,18.31-162.87-106.57-76.08-188.67-171.83-195.96-308.88-1.73-32.65,3.01-109.02,14.1-138.79,4-10.73,9.98-11.23,20.43-7.89,19.82,6.33,81.21,69.02,96.33,87.46,82.21,100.27,82.56,175.3,87.31,298.96.14,3.77-2.34,11.59,3.08,10.85,28.41-85.59,82.41-160.4,143.3-225.82-19.88.83-36.92,6.36-57.73,4.79-49.57-3.74-78.8-37.45-68.59-87.5,4.21-20.64,21.72-34.98,29.14-53.85-64.75-80.19-15.83-148.48,81.6-114.19,2.14-1.94-26.87-43.78-29.72-49.68-14.14-29.3-25.68-79.19,3.21-102.97,25.97-21.37,48.04-7.4,76.39-4.43,32.75-98.12,117.07-55.58,130.83,26.25l32.69-52.92c54.43-43.68,103.35-3.65,114.11,55.61,38.33-2.47,86.25-8.64,103.04,35.57,22.58,59.46-40.92,120.32-81.68,154.84,51.96-6.04,141.48-9.15,161.07,52.29,13.35,41.84-20.03,69.28-50.39,90.86,7.3,32.64,24.41,57.44,2.23,89.71-30.37,44.17-101.55,13.37-137.89-6.95-6.26-3.5-40.81-29.37-43.53-26.52,17.97,49.54,42.69,157.73-27.96,176.05-33.52,8.69-60.43-14.7-83.28-35.49-37.53,15.65-83.42,35.45-113.03-5.1-34.13-46.73-4.45-117.47,17.15-163.45-105.07,89.62-186.67,223.04-209.3,360.67-6.14,37.33-11.4,89.52-7.32,126.84.5,4.54.63,7.94,4.8,10.77,70.45-137.73,186-233.74,345.6-243.07,17.7-1.03,63.37-7.16,60.33,16.42-1.53,11.88-25.77,57.23-33.19,69.9-80.15,137.01-212.5,202.63-371.21,194.13.68,33.82,12.23,65.85,22.33,97.62l678.45,6.81,9.34,12.46,3.21,107.37c12.94-2.22,24.41-7.87,37.33-10.92,169.67-40.07,280.67,95.21,248.24,257.58-43.44,217.46-277.02,301.73-475.53,306.29-51.12,60.4-107.81,116.95-177.64,155.65-10.82,82.67-55.24,124.02-138.43,129.44-123.57,8.05-255.77-6.42-380.27-.04-51.54-5.34-100.01-29.63-119.06-80.29-4.98-13.24-7.53-41.71-13.07-49.23-4.54-6.17-32.43-20.18-41.61-26.91C109.17,1729.48,12.7,1460.17.87,1196.52c-.76-16.86-2.61-92.87,3.41-102.43,1.4-2.23,8.88-8.11,10.58-8.11h652.55ZM969.51,229.39c.29-63.42,19.95-129.3-22.31-184.78-41.21-54.11-49.32,8.19-66.56,28.93-23.47,28.22-80.2-21.21-87.89,21.09-8.97,49.37,47.02,113.59,80.19,145.72l71.68,51.33c3.07-2.95-34.35-47.41-36.04-52.75-1.95-6.18-1.84-17.45,6.39-15.73,8.72,1.83,29.2,45.59,37.53,52.84,3.9,3.4,5.44,4,10.8,3.19-8.5-30.54-17.66-61.42-28.76-91.13-4.54-12.15-31.31-52.8.86-38.23l34.11,79.53ZM1093.06,46.72c-37.78-35.01-69.53,26.17-80.01,56.43-18.08,52.22-20.58,108.76-15.09,163.26l14.99,3.42c6.13-13.24,32.38-91.47,42.62-93.2,4.5-.76,9.97,5.59,9.92,10.11-.08,7.86-25.86,57.6-30.59,72.19-1.13,3.5-9.03,18.8-1.45,20.3,9.87,1.95,44.38-51.78,55.86-59.32,11.73-7.7,17.69.01,9.58,12.69-6.79,10.61-47.25,55.51-48.07,61.03l4.8,7.16c9.45,2.74,43.21-15.42,53.07-21.02,41.95-23.84,129.72-96.64,107.18-151.85-15.2-37.22-75.86-6.76-93.58-21.67-11.97-10.07-12.61-44.14-29.23-59.54ZM932.17,319.74c.98-6.01-4.02-8.96-7.86-12.39-10.5-9.37-33.79-23.61-46.58-31.29-29.35-17.61-115.37-63.15-144.74-35.59-28.59,26.84,24.9,65.87,24.42,90.22-.27,13.7-24.66,35.4-30.15,50.44-9.93,27.19-1.56,50.38,26.71,59.19,55.87,17.4,147.06-30.35,187.54-69.24l-4.62-7.65c-15.31,9.17-101.07,20.42-110.69,14.02-6.94-4.62-1.43-14.57,5.39-16.58,11.07-3.26,32.23.33,45.7-1.02,17.33-1.73,34.63-9.49,51.77-12.14l.02-9.27c-14.56-1.31-57.54,2.59-68.6-4.62-6.33-4.13-1.62-14.08,1.62-14.08h70.08ZM987.38,292.43c-43.1,8.86-41.37,77.31,5.81,83.11,66.02,8.11,59.63-96.56-5.81-83.11ZM1050.56,382.03c-11.6,15.62,51.21,66.81,63.13,75.44,26.88,19.48,111.26,72.82,137.94,36.89,17.96-24.2-5.41-48.59-6.58-71.74-1.71-33.86,60.04-39.55,51.39-85.61-10-53.23-134.98-36.18-171.79-28.81-20.43,4.09-40.01,11.25-59.81,17.42l-1.67,15.76,94.07,19.59c13.75,4.66,8.31,18.04-5.07,17.86-18.25-.24-54.94-14.54-75.97-17.8-5.45-.84-10.83-1.19-16.32-.78-5,3.76,16.49,15.33,18.91,16.88,12.74,8.17,61.82,25.42,35.72,39.21l-63.96-34.31ZM654.92,665.47c9.92-134.96-48.72-262.11-158.79-339.5-32.4,142.11,20.69,287.7,140.1,370.66-23.43-77.94-54.37-153.8-95.18-224.23-3.5-14.47,13.61-19.65,23.44-10.8l44.27,86.54,46.15,117.33ZM969.53,391.37c-8.06-8-29.64,20.82-34.16,26.57-28.83,36.68-87.71,146.52-42.21,185.31,30.24,25.79,62.78-17.27,86.54-15,23.77,2.27,44.39,51.9,81.97,36.95,41.54-16.53,17.54-103.07,6.75-134.92-10.95-32.34-27.07-64.5-50.64-89.54-6.87-2.76-4.87,8.08-4.75,10.97.76,17.84,7.71,37.28,5.89,55.5l-4.53,4.87-10.82-1.06c-4.45-3.18-8.35-52.35-9.89-61.77-.46-2.8-1.32-9.36-5.41-8.53l-9.81,103.89-15.12,5.12,6.2-118.38ZM608.21,914.65c2.92-3.21-14.87-33.66-18.14-39.46-80.5-142.54-198.2-210.58-361.85-222.14,41.11,113.22,113.75,211.71,226.27,261.17,47.01,20.66,102.84,35.74,153.72,39.39-69.63-68.93-145.72-131.24-230.71-180.42-12.14-46.41,38.84-7.72,56.03,3.12,63.16,39.82,107.81,86.13,163.79,132.12,3.51,2.89,5.02,7.56,10.89,6.21ZM1044.29,727.79c-57.39,2.91-114.08,13.2-166.18,37.81-68.13,32.18-118.11,91.95-160.86,152.15l99.94-66.67c14.73-9.08,83.65-50.99,95.02-51.69,10.62-.66,16.96,9.31,12.27,18.74-2.79,5.62-93.65,53.4-108.52,62.87-36.17,23.04-72.34,49.5-104.94,77.25,117.43-3.83,219.1-50.74,287.85-146.63,5.88-8.2,49.84-79.76,45.42-83.82ZM1355.78,1114.01H28.87c-2.7,223.23,48.91,457.28,190.13,633.73,85.06,106.28,210.07,193.42,350.14,201.19,73.11,4.05,173.33,4.24,246.35-.02,321.18-18.73,504.34-379.08,536.79-662.41,2.53-22.12,12.51-166.75,3.5-172.49ZM1215.62,1730.71c170.6-10.38,372.35-77.3,424.42-259.25,40.28-140.74-41.76-282.84-200.27-250.1-10.17,2.1-48.68,13.97-54.32,20.43-8.39,9.6-4.9,61.5-10.95,77.79,167.85-101.29,268.27,57.75,164.48,203.45-61.16,85.86-177.38,123.31-277.6,139l-45.76,68.68ZM1281.03,1627.93c107.71-9.38,259.32-86.45,270.96-207.13,12.28-127.27-107.17-124.6-182.84-62.92-16.86,93.86-45.81,184.77-88.13,270.05ZM985.1,1936.34c-44.96,16.48-90.47,32.38-138.63,37.32-50.18,5.14-99.76.17-149.34-.09-102.55-.54-173.94,8.89-271.65-30.48-5.66-2.28-23.48-16.12-22.9-5.19,2.42,44.91,54.31,76.92,95.45,79.03,124.22-5.47,256.49,8.56,379.78.53,52.62-3.43,99.73-23.39,107.3-81.12Z"/>
  <path class="cls-1" d="M561.49,1437.94c-6.3,30.01,15.13,55.63,45.33,56.19,16.47.31,80.92-15.84,76.26,16.84-2.83,19.84-64.16,14.61-82.32,17.63-42.63,7.09-98.62,36.32-126.38,69.86-47.27,57.1-49.72,157.24,41.82,163.57,82.21,5.68,165.23-50.84,216.69-110.63,8.43-9.8,29.57-44.52,35.57-48.58,10.48-7.1,10.55,2.63,20.4,3.33,6.06-53.72,86.92-141.33,143.15-104.18,29.74,19.65,14.47,72.12-7.01,57.72-11.62-7.79,10.7-40.95-22.39-41.08-58.17-.22-121.1,148.31-60.95,167.13,40.89,12.79,93.77-38.26,116.72-67.39,7.09-9,18.49-38.67,31.65-28.02l4.38,7.98c-24.95,56.4-113.02,137.22-178.2,106.68-32.53-15.24-33.74-51.76-35.09-83.25-46.98,73.33-141.23,155.29-230.89,164.69-201.85,21.15-178.53-192.41-39.67-257.71l57.16-25.32c-33.56-7.6-43.2-40.3-40.9-71.25-38.69-12.13-76.66-24.73-102.28-58.13-9.35-12.19-34.37-64.12-7.87-64.06,14.07.03,11.24,21.56,17.53,35.7,11.19,25.13,36.5,40.74,60.78,51.35,7.34,3.21,35.1,15.32,40.01,9.89,6.58-7.29,14.76-28.15,23.46-38.97,44.2-54.93,135.2-94.6,204.94-74.25,41.78,12.19,59.57,50.84,33.01,87.94-40.44,56.49-171.59,64.47-234.92,56.32ZM567.73,1416.15h91.89c24.37,0,87.87-20.23,107.18-36.1,27.34-22.47,25-49.74-9.69-61.39-65.77-22.11-164.43,33.6-189.38,97.49Z"/>
  <path class="cls-1" d="M171.36,1518.16c-21.35,21.77-40.64-55.32-44.36-67.76-19.11-63.78-33.35-134.45-38.92-200.92-1.08-12.88-4.88-57.55-.85-66.2,1.31-2.8,2.87-5.51,6.02-6.55,8.12-1.93,15.9-.4,18.99,8.09,6.92,18.99,4.26,63.13,6.99,86.46,6.36,54.38,18.06,108.29,32,161.11,5.33,20.19,21.48,56.35,23.39,73.31.46,4.06-.39,9.53-3.26,12.46Z"/>
  <path class="cls-3" d="M180.37,1559.86c4.62-.73,10.23-1.47,14.64.07,5.95,2.07,28.02,57.7,35.78,67.21-9.42,36.62-27.05,8.68-37.37-9.54-5.36-9.45-28.42-52.56-13.05-57.73Z"/>
</svg>